<?xml version="1.0" encoding="UTF-8" standalone="no"?>
<!-- Created with Inkscape (http://www.inkscape.org/) -->

<svg
   width="319.35501mm"
   height="229.66mm"
   viewBox="0 0 319.35501 229.66"
   version="1.1"
   id="svg1"
   inkscape:version="1.4.2 (f4327f4, 2025-05-13)"
   sodipodi:docname="logo meads v1.2.svg"
   xmlns:inkscape="http://www.inkscape.org/namespaces/inkscape"
   xmlns:sodipodi="http://sodipodi.sourceforge.net/DTD/sodipodi-0.dtd"
   xmlns="http://www.w3.org/2000/svg"
   xmlns:svg="http://www.w3.org/2000/svg">
  <sodipodi:namedview
     id="namedview1"
     pagecolor="#ffffff"
     bordercolor="#666666"
     borderopacity="1.0"
     inkscape:showpageshadow="2"
     inkscape:pageopacity="0.0"
     inkscape:pagecheckerboard="0"
     inkscape:deskcolor="#d1d1d1"
     inkscape:document-units="mm"
     inkscape:zoom="0.52337611"
     inkscape:cx="654.4051"
     inkscape:cy="514.92606"
     inkscape:window-width="2560"
     inkscape:window-height="1377"
     inkscape:window-x="-8"
     inkscape:window-y="-8"
     inkscape:window-maximized="1"
     inkscape:current-layer="g1"
     showgrid="false" />
  <defs
     id="defs1" />
  <g
     inkscape:label="Layer 1"
     inkscape:groupmode="layer"
     id="layer1">
    <g
       id="g3"
       transform="translate(-18.077754,-6.4488447)">
      <g
         id="g1"
         inkscape:export-filename="logo meads v1.1.png"
         inkscape:export-xdpi="96"
         inkscape:export-ydpi="96"
         transform="translate(-202.48698,33.132109)">
        <g
           id="g2"
           transform="translate(406.41036,-1225.8693)"
           inkscape:export-filename="FINAL\logo meads v1.2.png"
           inkscape:export-xdpi="96"
           inkscape:export-ydpi="96">
          <path
             id="path1-1-7-8-2-7-7-5-9-9"
             style="baseline-shift:baseline;display:inline;overflow:visible;vector-effect:none;fill:#ffffff;fill-rule:evenodd;stroke-width:14.7684;enable-background:accumulate;stop-color:#000000"
             d="m -86.335697,1199.1859 -99.456463,57.4295 v 22.7137 l 13.21108,2.6363 v -25.0651 l 80.179003,-46.1496 92.31175987,53.4797 13.18163013,7.6982 v -15.3132 z m -99.510143,172.2112 99.510143,57.4491 99.42701,-57.4296 -0.074,-18.796 -12.94598013,-3.0731 -0.44542,21.5877 -79.89587687,46.1422 -105.537346,-61.1835 z"
             sodipodi:nodetypes="ccccccccccccccccccc" />
          <path
             d="m -172.3174,1291.957 v 2.9059 c 5.09439,-4.9508 9.79415,-7.2828 14.09927,-6.9958 1.36328,0.072 3.58759,1.3633 6.67293,3.8746 3.08534,2.4396 6.02717,5.1662 8.8255,8.1798 6.74468,-8.395 12.98711,-12.4131 18.72727,-12.0544 2.29606,0.1435 6.31418,3.0136 12.05434,8.6103 5.8119,5.5249 8.89723,9.2919 9.25599,11.3009 0.28701,1.8656 0.43052,13.7764 0.43052,35.7325 l -13.34587,-3.0136 c 0.43051,-24.6827 0.25113,-37.7415 -0.53814,-39.1766 -0.86102,-1.5785 -2.11668,-2.4037 -3.76698,-2.4754 -1.57854,-0.072 -3.33647,0.4664 -5.27377,1.6144 -1.86556,1.148 -3.76698,2.619 -5.70428,4.4128 -1.93731,1.722 -3.87461,3.6952 -5.81191,5.9195 0.1435,3.9464 0.21525,14.8527 0.21525,32.7189 l -13.34587,-3.0136 c 0.43051,-24.6827 0.25113,-37.7415 -0.53814,-39.1766 -1.07628,-1.5785 -2.43957,-2.4037 -4.08986,-2.4754 -1.57855,-0.072 -3.4441,0.6099 -5.59666,2.0449 -2.15256,1.3633 -4.26925,3.0495 -6.35005,5.0585 -2.00906,1.9373 -3.98224,4.1258 -5.91954,6.5653 v 30.9969 l -13.4535,-3.0136 v -51.5538 z m 91.514083,27.0146 24.43155,-16.6823 c -5.16614,-3.3006 -9.57889,-4.5204 -13.23824,-3.6594 -3.5876,0.8611 -6.35005,3.1212 -8.28736,6.7806 -1.9373,3.5876 -2.90595,8.108 -2.90595,13.5611 z m 2.47544,10.3323 c 2.00906,2.4396 4.26925,3.9464 6.78057,4.5204 2.51132,0.574 5.13027,0.2511 7.85684,-0.9687 2.79833,-1.2915 5.13027,-2.5472 6.99582,-3.7669 1.86555,-1.2916 4.05399,-2.9778 6.56531,-5.0586 l 2.15256,2.1526 4.08986,4.5204 2.15256,2.1525 c -6.24243,4.5922 -11.5162,7.6416 -15.82132,9.1484 -4.30511,1.5786 -8.57436,1.5786 -12.80773,0 -6.17067,-2.3678 -11.98258,-6.5294 -17.43573,-12.4848 -3.22884,-3.5876 -5.09439,-7.821 -5.59666,-12.7001 -0.50226,-4.9509 0.10763,-9.5431 1.82968,-13.7764 1.7938,-4.2334 4.52038,-7.821 8.17973,-10.7628 3.7311,-3.0136 7.78509,-4.5204 12.16196,-4.5204 2.87008,0 7.10345,1.8655 12.7001,5.5967 5.66841,3.6593 10.36816,7.2469 14.09927,10.7628 -0.0718,0.2152 -2.94183,2.4395 -8.61024,6.6729 -5.59665,4.1616 -11.22918,8.2873 -16.89759,12.3772 z m 49.43146,-26.6917 -5.81191,-9.7942 c 5.02264,-1.2915 10.58342,-2.5113 16.68234,-3.6593 6.17067,-1.1481 10.0452799,-1.6862 11.6238299,-1.6145 1.57854,0.072 4.73563,2.4396 9.47126,7.1035 4.73563,4.5921 7.9286001,8.108 9.5788901,10.5475 0.57401,0.8611 0.86102,3.767 0.86102,8.7179 0,4.8791 -0.10763,10.4758 -0.32288,16.79 -0.14351,6.3141 -0.17938,10.5834 -0.10763,12.8077 l -13.34587013,-3.1212 0.10763,-5.489 c -5.81190997,5.8119 -10.54754987,8.7178 -14.20689987,8.7178 -3.44409,-0.072 -7.82096,-3.3364 -13.13061,-9.7941 -5.30965,-6.4577 -7.96447,-11.0857 -7.96447,-13.884 0,-2.2243 1.50679,-4.2693 4.52037,-6.1348 3.01359,-1.8656 6.67294,-3.3006 10.97806,-4.3051 4.37687,-1.0763 8.25148,-1.9015 11.6238199,-2.4755 3.37235,-0.574 6.24243,-0.9686 8.61023997,-1.1839 l 0.10763,-2.906 c 0.0718,-3.444 -1.75791997,-5.3096 -5.48902997,-5.5966 -3.44409,-0.2153 -10.6910399,1.3274 -21.7408499,4.628 h -0.10763 l -0.10763,0.1076 h -0.10763 -0.10763 l -0.10762,0.1077 h -0.10763 -0.10763 l -0.10763,0.1076 h -0.10763 -0.10762 l -0.10763,0.1076 h -0.10763 -0.10763 -0.10763 l -0.10762,0.1076 h -0.10763 -0.10763 l -0.10763,0.1077 z m 5.3814,27.0146 c 0.64577,1.0045 1.86556,1.6503 3.65936,1.9373 1.7938,0.287 4.4845,-0.1794 8.0721,-1.3992 3.6593499,-1.2915 7.6056999,-3.5158 11.83906987,-6.6729 l 0.10763,-9.4713 c -18.94252987,5.5249 -26.83524987,10.727 -23.67815987,15.6061 z m 63.85359,5.2738 c 5.6684,2.87 12.52072,1.4709 20.55694,-4.1975 v -30.2435 c -2.0808,-1.2198 -4.98676,-2.0449 -8.71787,-2.4754 -2.94183,-0.2871 -5.81191,1.2197 -8.61024,4.5203 -2.79832,3.2289 -4.91501,6.9959 -6.35005,11.301 -1.43504,4.3051 -1.97318,8.5743 -1.61442,12.8077 0.43052,4.1616 2.00906,6.9241 4.73564,8.2874 z m 20.55694,-70.9269 13.4535,3.0136 c 0.43052,48.4326 0.43052,72.8642 0,73.2947 -0.35876,0.072 -2.22431,0.4664 -5.59666,1.1839 -3.30059,0.7893 -5.41727,1.2556 -6.35005,1.3992 -0.93277,0.1435 -2.87007,0.3587 -5.81191,0.6457 -2.87007,0.287 -5.16614,0.287 -6.88819,0 -1.6503,-0.287 -3.73111,-0.7893 -6.24243,-1.5068 -2.51131,-0.6457 -4.91501,-1.6144 -7.21107,-2.9059 -4.08986,-2.2244 -7.24695,-4.9509 -9.47127,-8.1798 -2.22431,-3.2288 -3.40822,-6.5294 -3.55172,-9.9017 -0.1435,-3.3724 0.25114,-6.7806 1.18391,-10.2247 0.93278,-3.5159 2.40369,-6.7088 4.41274,-9.5789 2.08082,-2.9418 4.26925,-5.5249 6.56531,-7.7492 2.36782,-2.2243 4.84327,-3.8029 7.42633,-4.7356 2.58308,-1.0046 4.87914,-1.184 6.8882,-0.5382 0.93278,0.287 1.90143,0.7175 2.90595,1.2915 1.07628,0.5023 1.93731,0.9687 2.58307,1.3992 0.71752,0.4305 1.68618,1.0763 2.90596,1.9373 1.29154,0.861 2.22432,1.4709 2.79833,1.8297 z m 64.068917,28.5214 -1.18391,5.8119 c -6.95994,-1.5785 -11.55207,-2.2243 -13.77638,-1.9373 -3.51585,0.4305 -6.2783,2.1526 -8.28736,5.1662 -2.009047,2.9418 -2.726567,5.776 -2.152557,8.5026 0.14351,0.6458 1.793797,0.574 4.950887,-0.2153 3.15709,-0.7892 6.60118,-1.5785 10.33229,-2.3678 3.7311,-0.861 6.13479,-1.0045 7.21107,-0.4305 4.95089,2.5831 8.28736,5.9913 10.00941,10.2247 1.72205,4.2333 1.90143,8.2873 0.53814,12.1619 -1.29154,3.8029 -3.98224,7.1035 -8.0721,9.9018 -4.08987,2.7984 -9.00488,4.1975 -14.74504,4.1975 -4.73563,0 -9.14838,-1.2915 -13.238237,-3.8746 -4.01812,-2.6548 -8.75375,-6.6012 -14.20691,-11.8391 l 1.93731,-3.6593 c 4.87914,3.6593 10.04528,6.1348 15.49844,7.4263 5.453147,1.2198 10.511667,0.7175 15.175547,-1.5068 4.73563,-2.2243 7.89271,-6.3142 9.47126,-12.2696 0.0718,-0.287 -0.25113,-0.3946 -0.96865,-0.3229 -0.78927,0.072 -2.76245,0.5382 -5.91954,1.3992 -9.97353,2.6548 -16.32358,3.4441 -19.050157,2.3678 l -0.96865,-0.5381 c -3.94636,-3.0136 -7.13933,-6.3142 -9.5789,-9.9018 -1.7938,-2.4396 -2.54719,-5.0227 -2.26019,-7.7492 0.35876,-2.7266 1.29154,-5.202 2.79833,-7.4264 1.5068,-2.296 3.76699,-4.1616 6.78057,-5.5966 3.01359,-1.5068 6.314177,-2.2602 9.901777,-2.2602 1.07628,0 2.58307,0.2153 4.52037,0.6458 2.00906,0.4305 4.80739,1.1839 8.39499,2.2602 3.65935,1.0045 5.95542,1.6144 6.88819,1.8296 z"
             id="text1-4-6-9-5-2-5-2-2-3-2-2-3-5-5-2-9-7-8-1-8-0-0-9-1-2-7-4-4-1-0-0-3"
             style="font-size:107.628px;line-height:125%;font-family:'Yatra One';-inkscape-font-specification:'Yatra One, Normal';text-align:center;letter-spacing:-1.26127px;word-spacing:0px;text-anchor:middle;fill:#ffffff;stroke-width:2.52254px"
             aria-label="meads"
             sodipodi:nodetypes="cccccsccccccccccccccccccccccccccsccccccccccccsccccccccsccscccccssscsccccccccccccccccccccccccscccccccccsccccccsccccsscccccccccccccccsccscssccccccccccccccsccc" />
        </g>
      </g>
    </g>
  </g>
</svg>
