<?xml version="1.0" encoding="UTF-8" standalone="no"?>
<!-- Created with Inkscape (http://www.inkscape.org/) -->

<svg
   width="319.28101mm"
   height="300mm"
   viewBox="0 0 319.28101 300"
   version="1.1"
   id="svg1"
   inkscape:version="1.4.2 (f4327f4, 2025-05-13)"
   sodipodi:docname="log meads v1.1.svg"
   xmlns:inkscape="http://www.inkscape.org/namespaces/inkscape"
   xmlns:sodipodi="http://sodipodi.sourceforge.net/DTD/sodipodi-0.dtd"
   xmlns="http://www.w3.org/2000/svg"
   xmlns:svg="http://www.w3.org/2000/svg">
  <sodipodi:namedview
     id="namedview1"
     pagecolor="#ffffff"
     bordercolor="#666666"
     borderopacity="1.0"
     inkscape:showpageshadow="2"
     inkscape:pageopacity="0.0"
     inkscape:pagecheckerboard="0"
     inkscape:deskcolor="#d1d1d1"
     inkscape:document-units="mm"
     inkscape:zoom="0.1850414"
     inkscape:cx="-224.27413"
     inkscape:cy="2304.8896"
     inkscape:window-width="2560"
     inkscape:window-height="1377"
     inkscape:window-x="-8"
     inkscape:window-y="-8"
     inkscape:window-maximized="1"
     inkscape:current-layer="g1" />
  <defs
     id="defs1" />
  <g
     inkscape:label="Layer 1"
     inkscape:groupmode="layer"
     id="layer1">
    <g
       id="g3"
       transform="translate(-18.077754,-6.4488447)">
      <g
         id="g1"
         inkscape:export-filename="logo meads v1.1.png"
         inkscape:export-xdpi="96"
         inkscape:export-ydpi="96"
         transform="translate(-202.48698,33.132109)">
        <g
           id="g2"
           transform="translate(406.08029,-11.438883)">
          <path
             id="path1-7-3-1"
             style="baseline-shift:baseline;display:inline;overflow:visible;vector-effect:none;fill:#ffffff;fill-opacity:1;fill-rule:evenodd;stroke-width:19.597;enable-background:accumulate;stop-color:#000000"
             d="M -55.395789,-15.244383 -185.30162,59.73712 v 26.329077 l 13.39613,2.25937 V 67.506761 L -48.972529,-3.5660872 61.079461,59.945057 v 21.87337 l 13.396081,3.02184 V 59.73712 Z M -185.30162,170.48054 v 39.25401 l 129.905831,75.02107 129.871331,-75.02107 v -26.51008 l -13.396081,2.74738 v 16.072 l -122.75891,70.93937 -110.226041,-63.41704 v -35.9153 z"
             sodipodi:nodetypes="cccccccccccccccccccccc" />
          <path
             d="m -172.06183,115.62514 v 2.90595 q 7.64159,-7.42633 14.09927,-6.99582 2.04493,0.10763 6.67293,3.87461 4.62801,3.65935 8.8255,8.17973 10.11703,-12.59248 18.72727,-12.05434 3.4441,0.21526 12.05434,8.61024 8.71786,8.28736 9.256,11.30094 0.43052,2.79833 0.43052,35.7325 l -13.34588,-3.01359 q 0.64577,-37.02403 -0.53814,-39.17659 -1.29153,-2.36781 -3.76698,-2.47544 -2.36781,-0.10763 -5.27377,1.61442 -2.79833,1.72205 -5.70428,4.41275 -2.90596,2.58307 -5.81191,5.91954 0.21525,5.91954 0.21525,32.71891 l -13.34587,-3.01359 q 0.64577,-37.02403 -0.53814,-39.17659 -1.61442,-2.36781 -4.08986,-2.47544 -2.36782,-0.10763 -5.59666,2.04493 -3.22884,2.04493 -6.35005,5.05852 -3.01359,2.90595 -5.91954,6.5653 v 30.99687 l -13.4535,-3.01359 v -51.55381 z m 91.514091,27.01462 24.43155,-16.68234 q -7.74921,-4.95088 -13.23824,-3.65935 -5.3814,1.29154 -8.28736,6.78057 -2.90595,5.3814 -2.90595,13.56112 z m 2.47544,10.33229 q 3.01359,3.65935 6.78057,4.52038 3.76698,0.86102 7.85684,-0.96865 4.19749,-1.93731 6.99582,-3.76698 2.79833,-1.93731 6.56531,-5.05852 l 2.15256,2.15256 q 2.04493,2.26019 4.08986,4.52038 l 2.15256,2.15256 q -9.36364,6.88819 -15.82132,9.14837 -6.45767,2.36782 -12.80773,0 -9.256,-3.55172 -17.43573,-12.48484 -4.84326,-5.3814 -5.59666,-12.70011 -0.75339,-7.42633 1.82968,-13.77638 2.6907,-6.35005 8.17973,-10.7628 5.59665,-4.52038 12.16196,-4.52038 4.30512,0 12.7001,5.59666 8.50261,5.48903 14.09927,10.7628 -0.10763,0.32288 -8.61024,6.67294 -8.39498,6.24242 -16.89759,12.37722 z m 49.43146,-26.69174 -5.81191,-9.79415 q 7.53396,-1.9373 16.68234,-3.65935 9.2560097,-1.72205 11.6238297,-1.61442 2.36781,0.10763 9.47126,7.10345 7.1034503,6.88819 9.5788903,10.54754 0.86102,1.29154 0.86102,8.71787 0,7.3187 -0.32288,16.78997 -0.21526,9.47126 -0.10763,12.80773 l -13.34587032,-3.12122 0.10763,-5.48902 q -8.71786998,8.71786 -14.20689968,8.71786 -5.16614,-0.10762 -13.13061,-9.79414 -7.96447,-9.68652 -7.96447,-13.88401 0,-3.33647 4.52037,-6.1348 4.52038,-2.79833 10.97806,-4.30512 6.56531,-1.61442 11.6238197,-2.47544 5.05852,-0.86103 8.61023998,-1.18391 l 0.10763,-2.90596 q 0.10763,-5.16614 -5.48902998,-5.59665 -5.1661397,-0.32289 -21.7408497,4.628 h -0.10763 l -0.10763,0.10763 h -0.10763 -0.10763 l -0.10762,0.10763 h -0.10763 -0.10763 l -0.10763,0.10762 h -0.10763 -0.10762 l -0.10763,0.10763 h -0.10763 -0.10763 -0.10763 l -0.10762,0.10763 h -0.10763 -0.10763 l -0.10763,0.10763 z m 5.3814,27.01463 q 0.96866,1.50679 3.65936,1.9373 2.6907,0.43051 8.0721,-1.39916 5.4890197,-1.93731 11.83906968,-6.67294 l 0.10763,-9.47126 Q -27.995069,145.97623 -23.259439,153.29494 Z m 63.85364,5.27377 q 8.50261,4.30512 20.55695,-4.19749 v -30.24347 q -3.12121,-1.82968 -8.71787,-2.47545 -4.41275,-0.43051 -8.61024,4.52038 -4.19749,4.84326 -6.35005,11.30094 -2.15256,6.45768 -1.61442,12.80773 0.64577,6.24243 4.73563,8.28736 z m 20.55695,-70.926853 13.453497,3.01358 q 0.645768,72.648903 0,73.294673 -0.53814,0.10762 -5.596656,1.1839 -4.950891,1.18391 -6.350051,1.39917 -1.39916,0.21525 -5.81191,0.64577 -4.30512,0.43051 -6.88819,0 -2.47545,-0.43052 -6.24243,-1.5068 -3.76698,-0.96865 -7.21107,-2.90595 -6.1348,-3.33647 -9.47127,-8.17973 -3.33647,-4.84326 -3.55172,-9.90177 -0.21526,-5.05852 1.18391,-10.22466 1.39916,-5.27378 4.41274,-9.5789 3.12122,-4.41274 6.56531,-7.74921 3.55173,-3.33647 7.42633,-4.73563 3.87461,-1.5068 6.8882,-0.53814 1.39916,0.43051 2.90595,1.29153 1.61442,0.7534 2.58307,1.39917 1.07628,0.64576 2.90596,1.9373 1.9373,1.29154 2.79833,1.82968 z m 64.068909,28.521423 -1.18391,5.81191 q -10.43991,-2.36782 -13.77638,-1.93731 -5.27377,0.64577 -8.28736,5.16615 -3.013582,4.41275 -2.152558,8.50261 0.215258,0.96865 4.950888,-0.21526 4.73563,-1.1839 10.33229,-2.36781 5.59665,-1.29154 7.21107,-0.43051 7.42634,3.8746 10.00941,10.22466 2.58307,6.35005 0.53814,12.16196 -1.93731,5.70428 -8.0721,9.90177 -6.1348,4.1975 -14.74504,4.1975 -7.10345,0 -13.238242,-3.87461 Q 90.7791,159.3221 82.599372,151.46526 l 1.937304,-3.65935 q 7.318704,5.48903 15.498434,7.42633 8.17973,1.82968 15.17555,-1.50679 7.10344,-3.33647 9.47126,-12.26959 0.10763,-0.43052 -0.96865,-0.32289 -1.18391,0.10763 -5.91954,1.39917 -14.96029,3.98223 -19.050158,2.36781 l -0.968652,-0.53814 q -5.91954,-4.52037 -9.578892,-9.90177 -2.6907,-3.65936 -2.260188,-7.74922 0.53814,-4.08986 2.798328,-7.42633 2.260188,-3.4441 6.780564,-5.59666 4.520378,-2.26019 9.901778,-2.26019 1.61442,0 4.52037,0.64577 3.01359,0.64577 8.39499,2.26019 5.48903,1.50679 6.88819,1.82968 z"
             id="text1-4-6-9-5-2-5-2-2-3-2-2-3-5-5-2-9-7-8-1-8-0-0-9-1-2-7-4-4"
             style="font-size:107.628px;line-height:125%;font-family:'Yatra One';-inkscape-font-specification:'Yatra One, Normal';text-align:center;letter-spacing:-1.26127px;word-spacing:0px;text-anchor:middle;fill:#ffffff;stroke-width:2.52254px"
             aria-label="meads" />
        </g>
      </g>
    </g>
  </g>
</svg>
