<?xml version="1.0" encoding="UTF-8" standalone="no"?>
<!-- Created with Inkscape (http://www.inkscape.org/) -->

<svg
   width="317.13599mm"
   height="230mm"
   viewBox="0 0 317.13599 230"
   version="1.1"
   id="svg1"
   inkscape:version="1.4.2 (f4327f4, 2025-05-13)"
   sodipodi:docname="meads v1.3.svg"
   xmlns:inkscape="http://www.inkscape.org/namespaces/inkscape"
   xmlns:sodipodi="http://sodipodi.sourceforge.net/DTD/sodipodi-0.dtd"
   xmlns="http://www.w3.org/2000/svg"
   xmlns:svg="http://www.w3.org/2000/svg">
  <sodipodi:namedview
     id="namedview1"
     pagecolor="#ffffff"
     bordercolor="#666666"
     borderopacity="1.0"
     inkscape:showpageshadow="2"
     inkscape:pageopacity="0.0"
     inkscape:pagecheckerboard="0"
     inkscape:deskcolor="#d1d1d1"
     inkscape:document-units="mm"
     inkscape:zoom="0.1850414"
     inkscape:cx="-2015.7651"
     inkscape:cy="743.07694"
     inkscape:window-width="2560"
     inkscape:window-height="1377"
     inkscape:window-x="-8"
     inkscape:window-y="-8"
     inkscape:window-maximized="1"
     inkscape:current-layer="layer1"
     showguides="true" />
  <defs
     id="defs1" />
  <g
     inkscape:label="Layer 1"
     inkscape:groupmode="layer"
     id="layer1">
    <g
       id="g10"
       transform="translate(457.16959,-33.450028)">
      <path
         id="path1-1-2-1-5-93-2-8"
         style="baseline-shift:baseline;display:inline;overflow:visible;vector-effect:none;fill:#ffffff;fill-rule:evenodd;stroke-width:14.6252;enable-background:accumulate;stop-color:#000000"
         d="M -257.99174,119.15483 V 90.950055 l -99.57251,-57.50003 -99.60549,57.50003 v 25.782685 h 15.30658 V 99.776725 l 84.29891,-48.64581 84.26593,48.64581 v 12.901365 z m -199.178,69.18778 V 205.95 l 99.60549,57.50003 99.57251,-57.50003 v -19.06368 h -13.87672 l -0.0894,9.13706 -85.60642,49.74576 -84.29891,-48.67336 -6.88188,-3.93545 z"
         sodipodi:nodetypes="cccccccccccccccccccccc"
         inkscape:export-filename="logo meads v1.3.png"
         inkscape:export-xdpi="96"
         inkscape:export-ydpi="96" />
      <path
         d="m -387.8606,181.63306 v -35.77908 q 0,-5.40288 -2.52134,-8.76467 -2.52134,-3.36179 -6.72358,-3.36179 -4.32231,0 -7.20384,3.60192 -2.76148,3.60192 -2.76148,9.0048 v 35.29882 h -15.60832 v -35.53895 q 0,-3.60192 -0.48025,-5.88313 -0.48026,-2.28122 -1.6809,-3.60192 -1.08057,-1.32071 -2.88153,-1.80096 -1.80096,-0.60032 -4.32231,-0.60032 -9.48505,0 -9.48505,11.52614 v 35.89914 h -15.60833 v -59.07149 h 14.64781 v 8.64461 q 3.0016,-5.88314 7.20384,-8.04429 4.20224,-2.16115 10.08538,-2.16115 3.0016,0 5.28282,0.48025 2.40128,0.48026 4.20224,1.6809 1.92102,1.08057 3.60192,2.88153 1.68089,1.80096 3.36179,4.32231 2.40128,-4.92263 6.36339,-7.08378 3.96211,-2.28121 9.60512,-2.28121 4.44237,0 8.16435,1.56083 3.72199,1.44077 6.36339,4.20224 2.64141,2.64141 4.08218,6.24333 1.56083,3.60192 1.56083,7.68409 v 40.94183 z m 58.98526,-35.29882 q -0.12006,-3.24173 -1.20064,-5.64301 -0.96051,-2.52134 -2.64141,-4.08217 -1.68089,-1.6809 -3.84204,-2.40128 -2.16116,-0.84045 -4.44237,-0.84045 -4.6825,0 -8.16435,3.48185 -3.3618,3.3618 -3.84205,9.48506 z m -24.61312,9.84525 q 0.36019,6.72358 3.84205,10.68569 3.60192,3.96212 9.36499,3.96212 3.84205,0 6.72359,-1.6809 3.0016,-1.80096 3.84204,-4.92262 h 16.08858 q -2.76147,9.12486 -9.60512,14.04748 -6.84365,4.92263 -16.3287,4.92263 -29.53575,0 -29.53575,-32.17715 0,-6.84365 1.92103,-12.3666 1.92102,-5.52294 5.52294,-9.48505 3.72198,-3.96211 9.0048,-6.0032 5.28282,-2.16115 12.12646,-2.16115 13.6873,0 20.65101,8.76467 7.08378,8.76467 7.08378,26.41408 z m 79.99629,-3.48186 q -1.20064,1.20064 -3.48186,1.92103 -2.28121,0.72038 -6.60352,1.56083 -6.72358,1.3207 -9.24493,3.36179 -2.52134,2.04109 -2.52134,5.88314 0,6.60352 7.56403,6.60352 3.0016,0 5.52295,-0.96052 2.6414,-1.08057 4.44236,-2.76147 1.92103,-1.80096 3.0016,-4.08217 1.20064,-2.40128 1.20064,-5.04269 z m 1.08057,28.93543 q -0.72038,-2.28122 -0.96051,-5.28282 -2.76147,3.12166 -7.3239,5.04269 -4.56243,1.80096 -10.56563,1.80096 -10.20545,0 -15.00801,-4.44237 -4.68249,-4.56243 -4.68249,-11.76627 0,-6.36339 2.04109,-10.08538 2.04108,-3.84205 5.643,-6.0032 3.60192,-2.16115 8.52455,-3.12166 5.04269,-1.08058 10.92582,-1.92103 5.88314,-0.84044 7.92423,-2.16115 2.04109,-1.44077 2.04109,-4.56243 0,-2.88154 -2.76148,-4.44237 -2.6414,-1.68089 -7.20384,-1.68089 -5.40288,0 -7.80416,2.40128 -2.28121,2.40128 -2.88153,6.36339 h -14.52775 q 0.12007,-4.56243 1.44077,-8.40448 1.44077,-3.84205 4.44237,-6.60352 3.12166,-2.76147 8.04429,-4.20224 4.92262,-1.56083 12.0064,-1.56083 6.96371,0 11.76627,1.56083 4.92262,1.56083 7.80416,4.56243 3.0016,2.88154 4.3223,7.3239 1.32071,4.32231 1.32071,9.84525 v 37.33991 z m 47.33911,-11.16596 q 5.643,0 9.36499,-4.68249 3.84205,-4.6825 3.84205,-12.24653 0,-19.21024 -13.08698,-19.21024 -13.44717,0 -13.44717,18.24973 0,7.92422 3.72199,12.96691 3.72198,4.92262 9.60512,4.92262 z m 12.96691,11.16596 -0.12007,-7.20384 q -5.40288,8.76467 -16.44876,8.76467 -5.64301,0 -10.32551,-2.16115 -4.68249,-2.16116 -8.04429,-6.24333 -3.36179,-4.08218 -5.28281,-9.96531 -1.92103,-5.88314 -1.92103,-13.32711 0,-6.72358 1.56084,-12.24653 1.68089,-5.643 4.80256,-9.72518 3.12166,-4.08218 7.56403,-6.24333 4.56243,-2.28121 10.3255,-2.28121 10.92583,0 17.52935,9.24492 v -29.29561 h 15.36819 v 80.68301 z m 55.38322,-41.18196 q -0.60032,-4.08217 -3.12166,-5.88313 -2.40128,-1.92103 -7.44397,-1.92103 -4.80256,0 -7.32391,1.20064 -2.40128,1.08058 -2.40128,3.84205 0,2.40128 2.40128,3.84205 2.52135,1.44077 7.20384,2.76147 7.6841,2.16115 12.96692,3.72199 5.28281,1.44076 8.40448,3.48185 3.24172,2.04109 4.56243,5.16275 1.44077,3.0016 1.44077,8.16436 0,7.92422 -6.60352,13.20704 -6.60352,5.16275 -19.57044,5.16275 -6.36339,0 -11.52614,-1.44077 -5.16275,-1.44077 -8.88474,-4.08218 -3.60192,-2.76147 -5.643,-6.48345 -1.92103,-3.84205 -2.04109,-8.52455 h 16.08857 q 0,4.20224 3.24173,6.48346 3.36179,2.28122 8.64461,2.28122 4.44237,0 7.56403,-1.32071 3.24173,-1.44077 3.24173,-4.3223 0,-3.24173 -2.40128,-4.6825 -2.28122,-1.44077 -7.08378,-2.52134 -8.6446,-1.92103 -13.92742,-3.96211 -5.28282,-2.16116 -8.28442,-4.6825 -2.88153,-2.52134 -3.96211,-5.52294 -0.96051,-3.0016 -0.96051,-6.72359 0,-3.36179 1.3207,-6.36339 1.44077,-3.0016 4.44237,-5.28282 3.0016,-2.28121 7.80416,-3.60192 4.80256,-1.44076 11.76627,-1.44076 12.72679,0 18.60992,5.16275 5.88314,5.16275 6.48346,14.28761 z"
         id="text1-4-6-9-5-2-5-2-2-3-6-9-8-5-5-2"
         style="font-size:120.064px;line-height:125%;font-family:Coolvetica;-inkscape-font-specification:'Coolvetica, Normal';text-align:center;letter-spacing:-1.407px;word-spacing:0px;text-anchor:middle;fill:#ffffff;stroke-width:2.81399px"
         aria-label="meads" />
    </g>
  </g>
</svg>
